<?xml version="1.0" encoding="utf-8"?>
<!-- Generator: Adobe Illustrator 16.0.0, SVG Export Plug-In . SVG Version: 6.00 Build 0)  -->
<!DOCTYPE svg PUBLIC "-//W3C//DTD SVG 1.0//EN" "http://www.w3.org/TR/2001/REC-SVG-20010904/DTD/svg10.dtd">
<svg version="1.0" id="Layer_1" xmlns="http://www.w3.org/2000/svg" xmlns:xlink="http://www.w3.org/1999/xlink" x="0px" y="0px"
	 width="126.041px" height="19.278px" viewBox="0 0 126.041 19.278" enable-background="new 0 0 126.041 19.278"
	 xml:space="preserve">
<g>
	<path fill="#414042" d="M18.055,18.936V9.905c0-1.262-0.026-1.99-1.521-1.99c-0.697,0-1.651,0.267-2.477,0.655
		c0.077,0.437,0.077,0.923,0.077,1.334v9.031H9.62V9.905c0-1.262-0.025-1.99-1.418-1.99c-0.852,0-1.831,0.364-2.528,0.704v7.114
		l1.187,0.121v3.082H0v-3.082l1.186-0.121V8.23L0,8.133V5.05h5.416v1.117C6.628,5.244,8.228,4.71,9.853,4.71
		c1.806,0,2.837,0.558,3.482,1.505c1.649-1.092,3.249-1.505,4.616-1.505c4.075,0,4.616,2.355,4.616,5.098v5.925l1.188,0.121v3.082
		H18.055z M31.301,19.278c-4.462,0-7.042-1.943-7.042-6.531v-1.506c0-4.588,2.58-6.531,7.042-6.531c4.513,0,7.093,1.942,7.093,6.531
		v1.506C38.394,17.334,35.813,19.278,31.301,19.278 M33.906,11.241c0-2.428-0.774-3.253-2.605-3.253c-1.806,0-2.58,0.825-2.58,3.253
		v1.506c0,2.428,0.774,3.252,2.58,3.252c1.831,0,2.605-0.824,2.605-3.252V11.241z M46.127,19.278c-3.121,0-4.488-1.143-4.488-4.25
		V8.133l-2.554-0.218V5.05h2.554V1.699h4.488V5.05h3.301v3.083h-3.275v6.848c0,1.115,0.077,1.357,1.213,1.357
		c0.671,0,1.16-0.047,2.037-0.096v2.67C49.016,19.01,47.623,19.278,46.127,19.278 M50.076,18.936v-3.107l1.186-0.096V8.254
		l-1.186-0.121V5.05h5.674v10.683l1.186,0.096v3.107H50.076z M51.159,0h4.693v3.205h-4.693V0z M64.828,19.278
		c-4.462,0-7.042-1.943-7.042-6.531v-1.506c0-4.588,2.58-6.531,7.042-6.531c4.514,0,7.093,1.942,7.093,6.531v1.506
		C71.921,17.334,69.342,19.278,64.828,19.278 M67.433,11.241c0-2.428-0.773-3.253-2.604-3.253c-1.807,0-2.58,0.825-2.58,3.253v1.506
		c0,2.428,0.773,3.252,2.58,3.252c1.831,0,2.604-0.824,2.604-3.252V11.241z M83.162,18.936v-8.787c0-1.626-0.311-2.186-1.729-2.186
		c-0.852,0-1.961,0.316-3.146,0.753v7.017l1.186,0.121v3.082h-6.861v-3.082l1.188-0.121V8.254l-1.188-0.121V5.05h5.417v1.142
		c1.496-0.899,3.146-1.481,4.798-1.481c4.436,0,4.849,2.452,4.849,5.439v5.584l1.187,0.121v3.082H83.162z M89.288,18.936v-3.082
		l1.186-0.121V3.204l-1.186-0.121V0h5.674v15.733l1.187,0.121v3.082H89.288z M105.845,18.936V18.04
		c-0.979,0.605-2.682,1.238-4.643,1.238c-2.761,0-4.308-1.312-4.308-3.957V14.76c0-3.689,2.992-4.102,7.171-4.102h1.367V9.905
		c0-1.674-0.388-2.015-2.709-2.015c-0.542,0-1.031,0.025-1.599,0.05l-0.258,1.067h-2.889V5.535c0.825-0.268,3.198-0.825,5.673-0.825
		c4.593,0,6.294,1.384,6.294,5.195v5.828l1.161,0.121v3.082H105.845z M105.612,12.842h-1.495c-2.064,0-2.94,0.219-2.94,1.773v0.559
		c0,1.068,0.696,1.359,1.676,1.359c1.161,0,2.295-0.389,2.76-0.631V12.842z M118.611,19.278c-2.062,0-3.61-0.074-6.447-0.365V3.204
		l-1.187-0.121V0h5.648v5.171c0.852-0.34,1.96-0.486,3.018-0.486c4.385,0,6.397,1.968,6.397,6.337v1.65
		C126.041,17.504,123.513,19.278,118.611,19.278 M121.553,10.999c0-2.307-0.594-3.036-2.502-3.036c-0.542,0-1.702,0.097-2.45,0.413
		v7.527c0.49,0.049,1.212,0.096,2.089,0.096c2.063,0,2.863-0.703,2.863-3.326V10.999z"/>
</g>
</svg>
